<svg xmlns="http://www.w3.org/2000/svg" width="256" height="256" fill="none" viewBox="0 0 256 256"><path fill="#E2F3FE" d="M245.746 54.1924C245.771 54.0255 245.796 53.8592 245.82 53.6928C245.87 53.3613 245.916 53.0302 245.958 52.6995C246.377 49.5362 246.573 46.5629 246.425 44.0612C246.422 44.0048 246.419 43.9487 246.415 43.8928L246.408 43.7938C246.404 43.7303 246.399 43.6675 246.394 43.6049L246.388 43.5252C246.382 43.4553 246.376 43.3859 246.37 43.3169L246.364 43.2498C246.357 43.1766 246.35 43.1038 246.342 43.0314L246.337 42.9788C246.328 42.9019 246.32 42.8254 246.311 42.7496L246.306 42.7102C246.297 42.6365 246.288 42.5632 246.278 42.4904L246.276 42.4736L246.27 42.4339L246.254 42.3181L246.233 42.1761L246.226 42.1317C246.202 41.976 246.177 41.8235 246.15 41.6739L246.146 41.643L246.118 41.5155C245.971 40.7638 245.774 40.0839 245.522 39.4891C242.645 32.7006 228.078 30.3703 219.481 29.5448C205.37 28.1832 190.99 29.0194 177.061 31.5409C170.505 32.7282 164.027 34.3072 157.66 36.2543C153.616 37.4816 149.618 38.8657 145.676 40.3934C143.992 41.0403 142.324 41.7226 140.66 42.4295C126.1 48.5791 112.364 56.7037 99.9842 66.5058C95.2198 70.2828 90.6536 74.3132 86.3216 78.5805L86.3346 78.5628C86.4609 78.3889 86.5863 78.2161 86.7119 78.0428L86.7358 78.0098C86.7358 78.0098 85.3743 75.463 82.8694 72.6346L82.8538 72.6169C82.7638 72.5158 82.6727 72.4147 82.5805 72.313L82.5087 72.2343C82.4366 72.1561 82.3638 72.0773 82.2899 71.9985L82.2162 71.9198C82.0678 71.7622 81.916 71.6042 81.7605 71.4466L81.6826 71.3678C81.539 71.2227 81.3925 71.078 81.2433 70.934L81.1633 70.857C80.5491 70.2681 79.8884 69.6873 79.1822 69.1349L79.0468 69.0297L78.8978 68.9157C78.834 68.8674 78.7699 68.8193 78.7053 68.7711C78.5439 68.6512 78.3806 68.5331 78.2151 68.4173L78.1154 68.3473C77.8823 68.1857 77.6449 68.0275 77.4033 67.8736C77.3345 67.8294 77.2651 67.786 77.1952 67.7424C77.0908 67.6778 76.9854 67.6137 76.8796 67.5503L76.7732 67.4874C76.6309 67.4039 76.4875 67.3223 76.3426 67.2418C76.2703 67.2017 76.1975 67.1618 76.1246 67.1231C76.0514 67.0838 75.9779 67.0449 75.9042 67.0062L75.7933 66.9491C75.5711 66.8351 75.346 66.7252 75.1176 66.62C74.8892 66.5147 74.6582 66.4137 74.4244 66.3178C74.3462 66.2855 74.2677 66.2543 74.1893 66.2232L74.0709 66.1774C73.9921 66.1468 73.9128 66.1174 73.8331 66.0881L73.6821 66.0333C73.6125 66.0087 73.5425 65.984 73.4725 65.9605C73.2307 65.8776 72.9861 65.8006 72.7385 65.7296L72.5876 65.6866C72.4722 65.6549 72.3564 65.6238 72.2397 65.5943C71.9884 65.5309 71.7342 65.4732 71.4774 65.4214C71.3919 65.4044 71.3061 65.388 71.2197 65.3727C71.1336 65.3568 71.0469 65.3422 70.9602 65.3275C70.8297 65.3062 70.6989 65.2869 70.5673 65.2687C70.484 65.2576 70.4009 65.247 70.3174 65.237L70.1702 65.22C69.2833 65.123 68.3663 65.1041 67.4207 65.1764C67.326 65.1834 67.2314 65.1917 67.1363 65.2011C66.9459 65.2194 66.7545 65.2411 66.5616 65.267C66.4655 65.2799 66.3689 65.2934 66.2722 65.3082C66.1267 65.3305 65.981 65.3552 65.8343 65.3816C65.7365 65.3992 65.6386 65.4181 65.5404 65.4381C65.3929 65.4674 65.2447 65.4991 65.0961 65.5333C64.997 65.5562 64.8978 65.5803 64.798 65.6049C64.6983 65.6303 64.5984 65.6561 64.4983 65.6825C64.3981 65.7095 64.2976 65.7378 64.1967 65.7672C64.0959 65.7959 63.9951 65.8259 63.8938 65.8577C63.7923 65.8888 63.6907 65.9211 63.589 65.9547C63.2833 66.0552 62.9755 66.1651 62.6651 66.2856C62.5615 66.3255 62.4578 66.3673 62.3538 66.4096L62.1977 66.4743C62.0933 66.5177 61.989 66.5623 61.8841 66.6083C61.7437 66.6701 61.6027 66.7341 61.4609 66.8C61.3916 66.8323 61.322 66.8653 61.2522 66.8987L61.0932 66.9758C60.8041 67.1174 60.5128 67.2678 60.2195 67.4277C60.1363 67.4729 60.0532 67.5188 59.9699 67.5658C59.808 67.6569 59.6455 67.7504 59.4827 67.8468C59.4283 67.8791 59.374 67.9121 59.3193 67.9444C59.0472 68.1091 58.7733 68.2812 58.4979 68.4617C58.3877 68.534 58.2772 68.6074 58.1667 68.6821C57.8901 68.8697 57.6119 69.0648 57.332 69.2693C57.2201 69.3511 57.1081 69.434 56.9958 69.5179C56.8832 69.6026 56.7707 69.6884 56.6579 69.7754C56.5893 69.8282 56.5209 69.8818 56.4524 69.9358C56.326 70.0352 56.1991 70.1362 56.0718 70.2391C55.9836 70.3109 55.8954 70.3826 55.8067 70.456C55.6927 70.55 55.5784 70.6458 55.464 70.7434C55.3189 70.8662 55.1734 70.992 55.0276 71.1195L54.8657 71.2624C54.5465 71.5452 54.226 71.839 53.9035 72.144C53.845 72.1993 53.7866 72.2551 53.7283 72.3109C53.6411 72.395 53.5535 72.4795 53.4659 72.5648C53.3778 72.6512 53.2893 72.7376 53.2009 72.8258C53.0834 72.9422 52.9655 73.0603 52.8473 73.1802C52.7585 73.2701 52.6692 73.3618 52.5801 73.4535C52.4917 73.5445 52.4035 73.6362 52.3147 73.7291C52.196 73.8538 52.0773 73.9795 51.9579 74.1071C51.839 74.2346 51.7195 74.3639 51.6 74.4945C51.2732 74.8518 50.9449 75.2216 50.615 75.603C50.5501 75.6783 50.485 75.7535 50.4201 75.8292C50.3317 75.9328 50.2433 76.0368 50.1545 76.142C50.094 76.2136 50.0331 76.2859 49.9723 76.3589C49.6076 76.795 49.2411 77.247 48.8725 77.7137C48.7497 77.8694 48.6266 78.0264 48.5034 78.1856C48.4416 78.265 48.38 78.3449 48.3182 78.4254C48.2298 78.5407 48.1412 78.6571 48.0528 78.7734C47.94 78.9227 47.8268 79.0732 47.7137 79.2248C47.6052 79.3699 47.4968 79.5164 47.3883 79.6639C47.326 79.7491 47.2637 79.8338 47.2014 79.9196C47.0506 80.1265 46.8996 80.3363 46.7485 80.5486C46.6751 80.6515 46.6018 80.7549 46.5284 80.8589C46.4584 80.9576 46.3884 81.057 46.3186 81.1575C46.174 81.3638 46.0294 81.5725 45.8841 81.7841C45.6529 82.1214 45.421 82.4647 45.1885 82.8139C45.1038 82.9414 45.0193 83.069 44.9343 83.1978C44.6167 83.6803 44.2975 84.1747 43.9772 84.6807C43.8737 84.844 43.7699 85.0093 43.6663 85.1749C43.41 85.5852 43.1528 86.0031 42.8952 86.4286C42.844 86.5126 42.7928 86.5973 42.7417 86.6826C42.5354 87.0246 42.3285 87.3725 42.1214 87.7247C42.0676 87.8164 42.0137 87.9081 41.9599 87.9997C41.8979 88.1055 41.8359 88.212 41.7742 88.319C41.6913 88.4612 41.6086 88.604 41.5261 88.7481C41.4 88.9673 41.2737 89.1883 41.1469 89.4111C40.893 89.8589 40.6386 90.3145 40.3832 90.7771C40.3109 90.9083 40.2385 91.0399 40.166 91.1727C40.1061 91.282 40.0461 91.392 39.9861 91.502C39.9147 91.6336 39.8433 91.7653 39.7716 91.8981C39.6444 92.1345 39.5168 92.3719 39.389 92.6116C39.3187 92.7439 39.2485 92.8762 39.178 93.0096C39.1151 93.1283 39.0525 93.2476 38.9895 93.3669C38.8538 93.6256 38.7181 93.8859 38.5819 94.1487C38.2501 94.7893 37.9171 95.4429 37.5832 96.1095C37.4494 96.3763 37.3155 96.6455 37.1815 96.9164C37.0456 97.1909 36.9099 97.4672 36.7742 97.7457C36.7087 97.8803 36.6428 98.015 36.5773 98.1507C36.5077 98.2942 36.4377 98.4387 36.3681 98.5839C36.2358 98.8585 36.1035 99.1347 35.9711 99.4138C35.8997 99.5632 35.8286 99.7136 35.7571 99.8647C35.6572 100.076 35.5573 100.288 35.4574 100.502C35.2167 101.016 34.9757 101.537 34.7338 102.065C34.6345 102.283 34.5352 102.501 34.4354 102.721C34.3294 102.954 34.2232 103.19 34.1172 103.426C33.997 103.693 33.8765 103.963 33.756 104.234C33.4548 104.912 33.1529 105.601 32.8502 106.3C32.7997 106.417 32.7491 106.534 32.6986 106.652C32.5504 106.995 32.4023 107.341 32.2543 107.69C32.1955 107.828 32.1368 107.967 32.0779 108.105C31.8589 108.622 31.6397 109.146 31.4201 109.675C31.3625 109.813 31.3049 109.953 31.2474 110.092C30.7475 111.302 30.2455 112.542 29.7414 113.813C29.6859 113.952 29.6307 114.093 29.5751 114.233C29.2791 114.983 28.9824 115.744 28.6852 116.515C28.6312 116.656 28.5768 116.797 28.5227 116.938C28.4357 117.165 28.3485 117.393 28.2612 117.622C28.2077 117.763 28.1539 117.904 28.1001 118.046C27.7291 119.023 27.3572 120.018 26.9842 121.029C26.9322 121.171 26.8798 121.313 26.8276 121.456C25.9544 123.834 25.076 126.306 24.1927 128.875C24.1436 129.018 24.0942 129.162 24.0449 129.306C22.4153 134.063 20.7695 139.15 19.109 144.589C19.1413 144.616 19.2174 144.677 19.3229 144.761L19.3781 144.805C19.4739 144.881 19.5891 144.971 19.7152 145.069L19.7534 145.099L19.9118 145.222L19.9526 145.253L20.0355 145.317L20.1196 145.382L20.2042 145.447L20.2467 145.479L20.3319 145.544C20.687 145.814 21.0384 146.074 21.2627 146.223C38.7616 109.793 54.1407 108.656 60.8752 110.467C58.0974 114.852 55.4936 119.392 53.171 124.055L53.1706 124.055L53.1142 124.169C53.0868 124.224 53.0595 124.279 53.0325 124.333C52.9743 124.451 52.9161 124.569 52.8582 124.687L52.8226 124.759C52.7526 124.901 52.683 125.044 52.6134 125.187L52.6046 125.206C51.2172 128.059 49.9382 130.957 48.7911 133.893L48.7832 133.914C48.7249 134.062 48.6671 134.212 48.6098 134.36L48.586 134.423C48.5369 134.55 48.4878 134.678 48.4393 134.806L48.3862 134.946C48.3457 135.053 48.3057 135.16 48.2655 135.267C48.242 135.33 48.2182 135.392 48.1949 135.455C48.1611 135.546 48.1273 135.637 48.0938 135.728C48.0645 135.807 48.0351 135.887 48.0056 135.966C47.9786 136.04 47.9516 136.115 47.9245 136.189C47.8896 136.285 47.8546 136.381 47.8198 136.476C47.7996 136.533 47.7793 136.589 47.759 136.646C47.7173 136.762 47.6755 136.878 47.6344 136.995L47.6006 137.09C47.5507 137.231 47.501 137.371 47.4519 137.513L47.4428 137.539C47.0419 138.688 46.6623 139.843 46.3052 141.002C46.1753 140.618 46.0489 140.235 45.9266 139.854C44.1301 145.271 42.8164 150.798 42.1328 156.391C41.9767 157.669 42.0632 159.118 42.3482 160.688C31.6237 164.459 12.8525 175.346 9.44312 206.681C9.44312 206.681 41.5436 220.137 65.002 195.569C68.2768 197.026 73.9741 197.323 80.873 196.847C80.6424 196.602 80.4101 196.353 80.1768 196.1C89.8083 195.606 102.145 193.442 113.536 190.765C114.724 196.587 113.989 213.396 71.1102 224.596C71.2894 225.023 71.7161 225.882 72.0106 226.46L72.0703 226.576C72.1021 226.639 72.132 226.697 72.1588 226.748C72.229 226.884 72.2807 226.982 72.3034 227.022C88.278 225.354 101.482 223.265 112.358 220.885C112.528 220.848 112.698 220.811 112.866 220.774C118.944 219.43 124.286 217.996 128.974 216.494C129.104 216.452 129.234 216.41 129.363 216.368C131.818 215.573 134.09 214.76 136.193 213.931C136.304 213.887 136.414 213.844 136.524 213.8C138.059 213.188 139.503 212.568 140.86 211.941C140.957 211.896 141.053 211.852 141.149 211.807C141.629 211.583 142.098 211.357 142.556 211.132C142.647 211.087 142.738 211.041 142.829 210.996C143.373 210.724 143.902 210.452 144.415 210.178C144.501 210.133 144.586 210.087 144.671 210.042C145.009 209.859 145.342 209.677 145.667 209.492C145.911 209.355 146.151 209.217 146.388 209.079C147.492 208.435 148.516 207.786 149.463 207.134C149.531 207.087 149.598 207.041 149.665 206.994C150.067 206.715 150.454 206.434 150.828 206.153C150.891 206.106 150.953 206.06 151.014 206.013C151.261 205.825 151.501 205.638 151.736 205.45C151.912 205.309 152.084 205.169 152.253 205.028C152.479 204.84 152.699 204.652 152.913 204.463C153.182 204.228 153.44 203.993 153.691 203.757C154.091 203.38 154.47 203.003 154.827 202.625C154.916 202.531 155.004 202.437 155.09 202.342C155.177 202.248 155.262 202.154 155.346 202.06C155.514 201.871 155.677 201.682 155.834 201.494C155.913 201.399 155.991 201.305 156.067 201.21L156.181 201.069C156.368 200.834 156.548 200.598 156.72 200.363L156.822 200.221C156.889 200.127 156.956 200.033 157.021 199.939C157.216 199.657 157.401 199.375 157.575 199.093C157.633 199 157.69 198.906 157.746 198.812L157.828 198.671C157.883 198.578 157.936 198.484 157.989 198.391L158.066 198.25C158.117 198.157 158.167 198.063 158.216 197.97C158.314 197.783 158.408 197.597 158.497 197.411C158.541 197.317 158.585 197.224 158.627 197.131L158.69 196.992C158.731 196.899 158.772 196.806 158.811 196.714C159.615 194.812 159.978 192.944 160.016 191.143C160.02 190.968 160.02 190.793 160.018 190.618C160.016 190.444 160.01 190.271 160.002 190.098C159.988 189.795 159.965 189.495 159.934 189.196L159.919 189.069C159.905 188.942 159.889 188.815 159.872 188.688C159.86 188.604 159.848 188.519 159.835 188.436C159.816 188.31 159.795 188.184 159.773 188.059C159.729 187.809 159.679 187.561 159.625 187.315C159.606 187.233 159.588 187.151 159.568 187.069L159.538 186.947C159.499 186.784 159.457 186.623 159.413 186.462C159.39 186.381 159.368 186.301 159.345 186.221C159.31 186.101 159.274 185.982 159.238 185.863C159.213 185.784 159.188 185.705 159.162 185.626C159.137 185.547 159.11 185.469 159.084 185.391C159.004 185.156 158.921 184.923 158.833 184.693C158.804 184.617 158.775 184.54 158.745 184.464C158.715 184.388 158.684 184.312 158.654 184.236C158.562 184.01 158.465 183.786 158.366 183.564C158.334 183.49 158.3 183.416 158.267 183.343C158.233 183.27 158.199 183.197 158.164 183.124C158.13 183.051 158.095 182.979 158.06 182.906C157.885 182.545 157.702 182.192 157.514 181.847C157.457 181.743 157.4 181.64 157.342 181.538C157.303 181.47 157.265 181.402 157.226 181.335L157.167 181.234C157.128 181.166 157.089 181.1 157.049 181.034L156.99 180.934C156.831 180.669 156.669 180.411 156.505 180.157C156.464 180.093 156.423 180.03 156.382 179.968C155.949 179.31 155.503 178.691 155.06 178.117L154.997 178.035C154.702 177.654 154.408 177.294 154.121 176.954L154.06 176.881L154.058 176.88C168.752 169.77 182.421 160.544 194.415 149.467C202.257 142.221 209.361 134.207 215.65 125.593C216.827 123.971 217.977 122.334 219.104 120.669C221.83 116.634 224.388 112.478 226.757 108.221C232.064 98.7018 236.455 88.6774 239.84 78.3225C240.005 77.817 240.183 77.2716 240.362 76.6886C240.499 76.2554 240.638 75.7969 240.782 75.3255C240.926 74.8535 241.074 74.3627 241.225 73.8526C241.324 73.5128 241.422 73.1666 241.526 72.8133C241.681 72.2837 241.834 71.7418 241.986 71.1876C242.144 70.6322 242.294 70.0656 242.449 69.4861L242.45 69.4797C242.474 69.388 242.499 69.2963 242.524 69.2034C242.657 68.7131 242.787 68.2183 242.915 67.7146C242.958 67.5535 242.998 67.3937 243.037 67.2332C243.107 66.957 243.177 66.679 243.246 66.3998C243.492 65.4206 243.731 64.4207 243.964 63.4087C244.17 62.5153 244.369 61.6112 244.559 60.7046C244.586 60.5779 244.613 60.4516 244.639 60.3248L244.665 60.1961C244.705 60.003 244.745 59.8099 244.784 59.6169L244.788 59.5952C244.828 59.3981 244.867 59.2008 244.906 59.0036L244.918 58.9419C244.948 58.7897 244.978 58.6377 245.007 58.4858L245.036 58.3339C245.159 57.7017 245.274 57.0643 245.385 56.4339C245.45 56.0704 245.51 55.7033 245.567 55.3401C245.589 55.2005 245.612 55.0609 245.634 54.9216C245.673 54.677 245.711 54.4352 245.746 54.1924Z"/><path fill="#EAE325" d="M64.9165 195.531C63.6871 194.97 62.0475 193.611 60.2083 191.702C58.3213 189.743 56.2242 187.203 54.1446 184.348C46.1605 188.498 38.8075 192.127 33.3967 194.743C27.8082 197.445 24.2912 199.068 24.2912 199.068L22.4713 196.275C22.4713 196.275 25.5062 193.598 30.4229 189.421C34.9856 185.545 41.1689 180.378 48.0512 174.861C46.5096 172.107 45.1514 169.322 44.1197 166.67C43.2994 164.563 42.6852 162.542 42.3484 160.688C31.6239 164.459 12.8528 175.346 9.44336 206.681C9.44336 206.681 41.5439 220.136 65.0022 195.569L64.9165 195.531Z"/><path fill="#D34734" d="M85.9608 76.7187C85.8438 76.5366 85.7139 76.3385 85.5714 76.1269C85.4935 76.011 85.4122 75.8917 85.327 75.7688C85.2699 75.6865 85.2116 75.603 85.1512 75.5179C85.0913 75.4327 85.0293 75.3463 84.9658 75.2581L84.8694 75.1247C84.8045 75.0354 84.7378 74.9448 84.6693 74.8525C84.6181 74.7838 84.5658 74.7144 84.5126 74.6438C84.4241 74.5268 84.3333 74.4075 84.2395 74.287C83.9965 73.9743 83.7365 73.6505 83.4598 73.3201C83.3534 73.1926 83.2447 73.0645 83.1333 72.9357C83.0469 72.8358 82.9591 72.7353 82.8697 72.6341L82.8541 72.6164L82.7224 72.4689L82.5807 72.3126L82.5089 72.2338C82.4369 72.1556 82.3641 72.0768 82.2902 71.998L82.2165 71.9193C82.1175 71.8141 82.017 71.7089 81.915 71.6037L81.7607 71.4461L81.6829 71.3673C81.5392 71.2222 81.3928 71.0776 81.2436 70.9335L81.1636 70.8565C80.9587 70.6603 80.7486 70.4645 80.5335 70.2706C80.4473 70.193 80.3607 70.1159 80.2731 70.039C80.1268 69.9108 79.9786 69.7839 79.8282 69.6575C79.7377 69.5816 79.6466 69.5065 79.5546 69.4318C79.4935 69.3818 79.4318 69.3319 79.3697 69.2825C79.3077 69.2331 79.2455 69.1837 79.1825 69.1344L79.047 69.0292L78.898 68.9152C78.8342 68.8669 78.7702 68.8188 78.7056 68.7707C78.6089 68.6989 78.5113 68.6278 78.413 68.5572C78.3477 68.5096 78.2816 68.4631 78.2155 68.4168L78.1158 68.3468C78.0159 68.2775 77.9151 68.2087 77.8136 68.1412C77.6784 68.0507 77.5418 67.9613 77.4037 67.8731C77.3349 67.8289 77.2655 67.7855 77.1956 67.742C77.0912 67.6773 76.9858 67.6132 76.88 67.5498L76.7736 67.4869C76.6313 67.4034 76.4879 67.3218 76.343 67.2413C76.2707 67.2012 76.1979 67.1613 76.125 67.1226C76.0518 67.0833 75.9783 67.0444 75.9046 67.0057L75.7937 66.9486C75.6826 66.8916 75.5706 66.8358 75.4581 66.7812C75.3455 66.7259 75.2321 66.6724 75.118 66.6195C74.8896 66.5142 74.6586 66.4132 74.4248 66.3173C74.3466 66.285 74.2681 66.2538 74.1897 66.2227L74.0713 66.1769C73.9925 66.1464 73.9132 66.1169 73.8335 66.0876L73.6825 66.0328C73.6129 66.0082 73.5429 65.9835 73.4729 65.96C73.2311 65.8771 72.9865 65.8001 72.7388 65.7291L72.588 65.6861C72.4726 65.6544 72.3568 65.6233 72.2401 65.5938C71.9888 65.5304 71.7346 65.4727 71.4778 65.4209C71.3922 65.4039 71.3065 65.3875 71.2201 65.3722C71.134 65.3563 71.0473 65.3417 70.9606 65.327C70.8301 65.3057 70.6993 65.2864 70.5677 65.2682C70.4844 65.2571 70.4013 65.2465 70.3178 65.2365L70.1706 65.2195C69.2837 65.1225 68.3667 65.1037 67.4211 65.1759C67.3264 65.1829 67.2318 65.1912 67.1366 65.2007C66.9463 65.2189 66.7549 65.2406 66.562 65.2665C66.4659 65.2794 66.3692 65.2929 66.2726 65.3077C66.1271 65.33 65.9814 65.3547 65.8347 65.3811C65.7368 65.3987 65.639 65.4176 65.5408 65.4376C65.3933 65.4669 65.2451 65.4986 65.0965 65.5328C64.9974 65.5557 64.8982 65.5798 64.7984 65.6044C64.6987 65.6298 64.5988 65.6556 64.4987 65.682C64.3985 65.709 64.298 65.7373 64.1971 65.7667C64.0963 65.7954 63.9955 65.8255 63.8942 65.8572C63.7927 65.8883 63.6911 65.9206 63.5894 65.9542C63.2837 66.0547 62.9759 66.1646 62.6654 66.2851C62.5619 66.325 62.4582 66.3668 62.3542 66.4091L62.1981 66.4738C62.0937 66.5172 61.9894 66.5618 61.8845 66.6078C61.7441 66.6696 61.6031 66.7336 61.4613 66.7995C61.392 66.8318 61.3224 66.8648 61.2526 66.8982L61.0936 66.9753C60.8044 67.1169 60.5132 67.2674 60.2199 67.4272C60.1367 67.4724 60.0536 67.5183 59.9703 67.5653C59.8084 67.6564 59.6459 67.7499 59.4831 67.8463C59.4287 67.8786 59.3744 67.9116 59.3197 67.9439C59.0475 68.1086 58.7737 68.2807 58.4983 68.4612C58.3881 68.5335 58.2776 68.607 58.1671 68.6816C57.8905 68.8692 57.6123 69.0643 57.3324 69.2688C57.2204 69.3506 57.1085 69.4335 56.9962 69.5174C56.8836 69.6021 56.7711 69.6879 56.6583 69.7749C56.5897 69.8277 56.5213 69.8813 56.4528 69.9353C56.3264 70.0347 56.1995 70.1357 56.0722 70.2386C55.984 70.3104 55.8958 70.3821 55.8071 70.4555C55.6931 70.5495 55.5788 70.6453 55.4644 70.7429C55.3193 70.8657 55.1738 70.9915 55.028 71.1191L54.8661 71.2619C54.5469 71.5447 54.2264 71.8386 53.9039 72.1435C53.8454 72.1988 53.787 72.2546 53.7287 72.3104C53.6415 72.3945 53.5539 72.479 53.4663 72.5643C53.3781 72.6507 53.2897 72.7371 53.2013 72.8253C53.0838 72.9417 52.9659 73.0598 52.8477 73.1797C52.7589 73.2696 52.6696 73.3613 52.5805 73.453C52.492 73.5441 52.4039 73.6357 52.3151 73.7286C52.1963 73.8533 52.0776 73.979 51.9583 74.1066C51.8394 74.2341 51.7199 74.3635 51.6004 74.494C51.2736 74.8513 50.9453 75.2211 50.6154 75.6026C50.5504 75.6778 50.4854 75.753 50.4205 75.8288C50.3321 75.9323 50.2437 76.0363 50.1549 76.1415C50.0944 76.2131 50.0335 76.2854 49.9727 76.3584C49.8513 76.5035 49.7294 76.651 49.6074 76.7998C49.4734 76.9639 49.3387 77.1296 49.2042 77.2971C49.094 77.4346 48.9836 77.5727 48.8729 77.7132C48.7501 77.8689 48.6269 78.0259 48.5038 78.1851C48.442 78.2645 48.3804 78.3444 48.3186 78.4249C48.2302 78.5402 48.1416 78.6566 48.0532 78.7729C47.9404 78.9222 47.8272 79.0727 47.7141 79.2243C47.6056 79.3694 47.4971 79.5159 47.3887 79.6634C47.3264 79.7486 47.2641 79.8333 47.2018 79.9191C47.051 80.126 46.9 80.3358 46.7489 80.5481C46.6755 80.651 46.6022 80.7544 46.5288 80.8584C46.4588 80.9571 46.3888 81.0565 46.319 81.157C46.1744 81.3633 46.0298 81.572 45.8845 81.7836C45.6533 82.1209 45.4214 82.4642 45.1889 82.8134C45.1042 82.9409 45.0197 83.0685 44.9347 83.1973C44.6171 83.6798 44.2979 84.1742 43.9776 84.6802C43.8741 84.8435 43.7707 85.0088 43.6667 85.1744C43.4104 85.5847 43.1532 86.0026 42.8955 86.4281C42.8444 86.5121 42.7932 86.5968 42.7421 86.6821C42.5358 87.0241 42.3289 87.372 42.1218 87.7242C42.0679 87.8159 42.0141 87.907 41.9603 87.9993C41.8983 88.1051 41.8363 88.2115 41.7745 88.3185C41.6917 88.4607 41.609 88.6035 41.5265 88.7476C41.4004 88.9668 41.2741 89.1878 41.1473 89.4106C40.957 89.7469 40.7661 90.0866 40.5748 90.431C40.5111 90.5462 40.4473 90.6614 40.3834 90.7766C40.3112 90.9078 40.2388 91.0394 40.1663 91.1722C40.1063 91.2815 40.0464 91.3915 39.9864 91.5015C39.915 91.6331 39.8436 91.7648 39.7719 91.8976C39.6446 92.134 39.5171 92.3714 39.3892 92.6111C39.319 92.7435 39.2488 92.8757 39.1782 93.0091C39.1154 93.1278 39.0528 93.2471 38.9898 93.3664C38.8541 93.6251 38.7183 93.8854 38.5821 94.1482C38.4993 94.308 38.4167 94.4679 38.3339 94.6289C38.2512 94.79 38.1683 94.9523 38.0855 95.115C38.0437 95.1967 38.0016 95.279 37.96 95.3614C37.8765 95.5265 37.7928 95.6923 37.7091 95.8586C37.6673 95.942 37.6252 96.0249 37.5836 96.109C37.4498 96.3758 37.3159 96.645 37.1819 96.9159C37.046 97.1904 36.9103 97.4667 36.7746 97.7452C36.7091 97.8799 36.6432 98.0145 36.5777 98.1502C36.5081 98.2937 36.4381 98.4382 36.3685 98.5834C36.2362 98.858 36.1039 99.1342 35.9715 99.4133C35.9001 99.5627 35.829 99.7131 35.7575 99.8642C35.6576 100.076 35.5577 100.288 35.4578 100.501C35.3376 100.759 35.2171 101.017 35.0966 101.278C34.9758 101.539 34.8553 101.801 34.7342 102.065C34.6349 102.282 34.5356 102.5 34.4358 102.72C34.3298 102.953 34.2236 103.189 34.1176 103.425C33.9974 103.693 33.8769 103.963 33.7564 104.234C33.4551 104.911 33.1533 105.6 32.8506 106.3C32.8001 106.417 32.7495 106.534 32.699 106.651C32.5508 106.994 32.4027 107.341 32.2547 107.69C32.1959 107.827 32.1371 107.966 32.0783 108.105C31.8593 108.622 31.6401 109.145 31.4205 109.674C31.3629 109.813 31.3053 109.952 31.2478 110.091C30.7478 111.301 30.2459 112.541 29.7418 113.813C29.6863 113.952 29.6311 114.092 29.5755 114.233C29.2795 114.983 28.9827 115.743 28.6856 116.515C28.6316 116.656 28.5772 116.796 28.5231 116.938C28.4361 117.165 28.3489 117.393 28.2616 117.622C28.2081 117.763 28.1543 117.904 28.1005 118.045C27.7295 119.023 27.3576 120.017 26.9846 121.029C26.9326 121.171 26.8802 121.313 26.828 121.455C25.9548 123.833 25.0764 126.305 24.1931 128.874C24.144 129.018 24.0946 129.162 24.0453 129.306C22.4157 134.063 20.7699 139.15 19.1094 144.588C19.1417 144.616 19.2178 144.677 19.3233 144.761L19.3785 144.804L19.4696 144.877L19.6055 144.983L19.7156 145.069L19.7538 145.099L19.9122 145.222L19.953 145.253L20.0359 145.317L20.12 145.381L20.2046 145.446L20.2471 145.478L20.3323 145.544C20.6874 145.814 21.0388 146.073 21.2631 146.223C38.7619 109.793 54.141 108.656 60.8755 110.466C64.0059 105.524 67.3574 100.779 70.7766 96.2758C70.9762 96.0131 71.1757 95.7515 71.3752 95.4906C75.9531 89.5105 80.958 83.8638 86.322 78.5803L86.3349 78.5627C86.461 78.3888 86.5867 78.216 86.7123 78.0426L86.7362 78.0097C86.7355 78.009 86.4709 77.514 85.9608 76.7187Z"/><path fill="#D34734" d="M160.018 190.618C160.016 190.444 160.01 190.27 160.002 190.097C159.998 190.011 159.993 189.924 159.988 189.838C159.982 189.752 159.976 189.666 159.969 189.581C159.959 189.452 159.947 189.324 159.933 189.196L159.919 189.068C159.905 188.941 159.889 188.814 159.872 188.687C159.86 188.604 159.848 188.519 159.835 188.435C159.816 188.309 159.795 188.184 159.773 188.059C159.729 187.809 159.679 187.561 159.624 187.314C159.606 187.232 159.587 187.151 159.568 187.069L159.538 186.947C159.499 186.784 159.457 186.622 159.412 186.461C159.39 186.381 159.368 186.301 159.344 186.221C159.31 186.101 159.274 185.982 159.237 185.862C159.212 185.783 159.187 185.704 159.162 185.625C159.136 185.546 159.11 185.468 159.084 185.39C159.004 185.155 158.921 184.923 158.833 184.692C158.804 184.616 158.775 184.54 158.745 184.464C158.715 184.387 158.684 184.312 158.654 184.236C158.623 184.161 158.592 184.085 158.56 184.01C158.497 183.86 158.432 183.711 158.366 183.563C158.333 183.489 158.3 183.416 158.266 183.342C158.233 183.269 158.198 183.196 158.164 183.123C158.13 183.05 158.095 182.978 158.06 182.906C158.007 182.798 157.954 182.69 157.9 182.583C157.846 182.476 157.792 182.37 157.737 182.264C157.663 182.124 157.589 181.985 157.513 181.847C157.456 181.742 157.399 181.64 157.341 181.537C157.303 181.469 157.264 181.402 157.225 181.334L157.167 181.233C157.128 181.166 157.088 181.099 157.049 181.033L156.989 180.933C156.83 180.669 156.669 180.41 156.505 180.156C156.463 180.093 156.422 180.03 156.381 179.967C156.34 179.905 156.299 179.842 156.257 179.781C156.008 179.409 155.756 179.05 155.503 178.705C155.461 178.647 155.419 178.59 155.376 178.534C155.271 178.392 155.165 178.253 155.06 178.116L154.996 178.034C154.849 177.844 154.702 177.659 154.555 177.478C154.41 177.298 154.264 177.123 154.121 176.953L154.059 176.88L154.058 176.879C146.254 180.656 138.161 183.836 129.877 186.38C129.669 186.444 129.461 186.508 129.252 186.57C124.534 188.001 119.15 189.445 113.536 190.765C114.724 196.587 113.988 213.396 71.1099 224.595C71.2891 225.023 71.7158 225.882 72.0103 226.46L72.07 226.576C72.1018 226.638 72.1317 226.697 72.1585 226.748L72.2307 226.887L72.2645 226.951L72.303 227.022C88.2775 225.354 101.481 223.265 112.358 220.885C112.528 220.848 112.697 220.811 112.866 220.774C118.943 219.43 124.286 217.996 128.974 216.493C129.104 216.452 129.233 216.41 129.363 216.368C131.817 215.573 134.09 214.759 136.193 213.931C136.303 213.887 136.413 213.844 136.523 213.8C138.059 213.188 139.503 212.568 140.859 211.941C140.956 211.896 141.053 211.852 141.148 211.806C141.628 211.582 142.097 211.357 142.555 211.132C142.647 211.086 142.738 211.041 142.829 210.996C143.373 210.724 143.902 210.452 144.415 210.178C144.5 210.133 144.585 210.087 144.67 210.042C145.009 209.859 145.341 209.676 145.666 209.492C145.911 209.355 146.151 209.217 146.387 209.079C147.492 208.435 148.515 207.786 149.463 207.134C149.53 207.087 149.598 207.041 149.665 206.994C150.066 206.714 150.454 206.434 150.828 206.153C150.89 206.106 150.952 206.06 151.014 206.013C151.26 205.825 151.501 205.638 151.735 205.45C151.911 205.309 152.084 205.169 152.253 205.028C152.479 204.839 152.699 204.651 152.913 204.463C153.181 204.228 153.44 203.993 153.69 203.757C154.091 203.38 154.469 203.003 154.826 202.625C154.916 202.531 155.003 202.437 155.09 202.342C155.177 202.248 155.262 202.153 155.346 202.059C155.514 201.871 155.676 201.682 155.834 201.493C155.913 201.399 155.99 201.305 156.067 201.21L156.18 201.069C156.368 200.833 156.547 200.598 156.719 200.363L156.821 200.221C156.889 200.127 156.955 200.033 157.02 199.939C157.216 199.657 157.4 199.375 157.575 199.093C157.632 199 157.69 198.906 157.745 198.812L157.828 198.671C157.882 198.578 157.936 198.484 157.988 198.391L158.066 198.25C158.117 198.157 158.167 198.063 158.216 197.97C158.314 197.783 158.407 197.597 158.496 197.41C158.541 197.317 158.584 197.224 158.627 197.131L158.689 196.991C158.731 196.899 158.771 196.806 158.81 196.713C159.614 194.811 159.977 192.943 160.015 191.143C160.018 191.056 160.018 190.968 160.019 190.88C160.02 190.792 160.019 190.705 160.018 190.618Z"/><path fill="#fff" d="M131.723 119.107C124.705 107.374 112.441 102.19 104.331 107.529C96.2209 112.867 95.3358 126.707 102.354 138.44C109.372 150.173 121.635 155.357 129.746 150.019C137.856 144.68 138.741 130.84 131.723 119.107Z"/><path fill="#356EB5" d="M130.283 120.055C124.488 110.366 114.36 106.085 107.663 110.494C105.709 111.78 104.263 113.665 103.338 115.929L103.337 115.932C103.233 116.187 103.136 116.446 103.045 116.71L103.042 116.72C102.982 116.896 102.924 117.073 102.87 117.253L102.868 117.26C102.813 117.44 102.762 117.623 102.713 117.808V117.808C102.64 118.084 102.574 118.365 102.514 118.649L102.511 118.663C102.472 118.852 102.436 119.041 102.403 119.233L102.402 119.239C102.351 119.527 102.308 119.819 102.271 120.115L102.27 120.126C102.245 120.32 102.224 120.516 102.206 120.713L102.204 120.735C102.186 120.932 102.171 121.129 102.159 121.328L102.158 121.343C102.152 121.437 102.147 121.532 102.143 121.626L102.142 121.65C102.133 121.847 102.127 122.046 102.123 122.245L102.123 122.279C102.119 122.479 102.119 122.68 102.122 122.881L102.122 122.906C102.124 123.004 102.126 123.101 102.128 123.199L102.129 123.212C102.132 123.315 102.135 123.417 102.14 123.521L102.141 123.539C102.145 123.633 102.149 123.728 102.155 123.822L102.157 123.864C102.168 124.065 102.183 124.267 102.2 124.47L102.203 124.511C102.211 124.606 102.22 124.702 102.23 124.797L102.231 124.817C102.241 124.919 102.252 125.022 102.264 125.124L102.268 125.16C102.278 125.253 102.29 125.344 102.301 125.436L102.306 125.478C102.332 125.68 102.36 125.883 102.391 126.085L102.401 126.146C102.432 126.347 102.466 126.55 102.503 126.753L102.512 126.805C102.529 126.894 102.545 126.983 102.563 127.072L102.572 127.118C102.592 127.22 102.612 127.322 102.634 127.424L102.641 127.461C102.66 127.55 102.679 127.639 102.699 127.728L102.714 127.793C102.759 127.994 102.807 128.197 102.857 128.399L102.874 128.465C102.896 128.555 102.92 128.645 102.943 128.735L102.952 128.77C102.979 128.872 103.007 128.974 103.035 129.076L103.051 129.132C103.075 129.215 103.098 129.298 103.122 129.381L103.144 129.454C103.173 129.554 103.203 129.654 103.233 129.753L103.243 129.783C103.27 129.873 103.299 129.964 103.328 130.053L103.352 130.131C103.382 130.223 103.412 130.315 103.443 130.407L103.45 130.43C103.484 130.53 103.518 130.63 103.553 130.73L103.578 130.803C103.607 130.885 103.637 130.968 103.667 131.05L103.689 131.111C103.725 131.211 103.762 131.31 103.799 131.409L103.82 131.465C103.851 131.546 103.883 131.628 103.914 131.709L103.948 131.795C103.985 131.89 104.023 131.985 104.062 132.081L104.07 132.099C104.109 132.195 104.149 132.29 104.189 132.386L104.221 132.462C104.256 132.545 104.291 132.627 104.327 132.71L104.352 132.766C104.395 132.865 104.438 132.962 104.483 133.06L104.514 133.129C104.549 133.206 104.585 133.284 104.621 133.362L104.659 133.442C104.704 133.538 104.749 133.634 104.795 133.729L104.822 133.783C104.861 133.865 104.901 133.946 104.941 134.027L104.983 134.111C105.026 134.196 105.069 134.281 105.113 134.366L105.132 134.405C105.182 134.501 105.232 134.596 105.282 134.692L105.326 134.774C105.366 134.849 105.407 134.925 105.448 135L105.488 135.073C105.54 135.168 105.593 135.263 105.646 135.358L105.681 135.419C105.724 135.496 105.768 135.573 105.813 135.65L105.863 135.735C105.915 135.826 105.968 135.916 106.022 136.006L106.03 136.02C106.709 137.155 107.448 138.216 108.234 139.198C108.286 139.264 108.339 139.329 108.392 139.394C108.708 139.782 109.033 140.157 109.363 140.52C109.418 140.581 109.473 140.64 109.529 140.7C110.139 141.357 110.771 141.969 111.42 142.535C111.833 142.895 112.252 143.236 112.678 143.558C112.799 143.65 112.921 143.741 113.043 143.83C113.533 144.185 114.029 144.515 114.53 144.818C114.655 144.894 114.781 144.969 114.906 145.041C115.095 145.15 115.284 145.255 115.474 145.357C115.601 145.424 115.727 145.49 115.855 145.555C115.982 145.619 116.109 145.682 116.236 145.742C116.363 145.803 116.491 145.863 116.619 145.92C116.746 145.977 116.874 146.033 117.002 146.087C117.13 146.141 117.258 146.194 117.386 146.244C117.45 146.27 117.514 146.295 117.578 146.319C117.706 146.368 117.835 146.415 117.963 146.461C121.747 147.8 125.563 147.614 128.65 145.581L128.811 145.474L128.868 145.434L128.974 145.36L129.031 145.318L129.129 145.247L129.197 145.196L129.285 145.129L129.351 145.078L129.437 145.009L129.504 144.955L129.588 144.887L129.655 144.831L129.736 144.762L129.802 144.704L129.883 144.633L129.946 144.576L130.026 144.503L130.089 144.443L130.167 144.37L130.229 144.31L130.31 144.231L130.366 144.174L130.448 144.089L130.502 144.034C130.59 143.941 130.677 143.847 130.763 143.751L130.806 143.702L130.891 143.605L130.942 143.544L131.015 143.458L131.069 143.392L131.139 143.305L131.191 143.24L131.26 143.152L131.312 143.084L131.377 142.998L131.43 142.926L131.494 142.839L131.544 142.769L131.609 142.678L131.657 142.608L131.721 142.514L131.767 142.445L131.83 142.35L131.875 142.279L131.938 142.18L131.98 142.113L132.05 141.996L132.082 141.944C132.15 141.83 132.216 141.714 132.281 141.598L132.304 141.556L132.377 141.423L132.408 141.363L132.47 141.245L132.504 141.177L132.56 141.067L132.596 140.993L132.648 140.886L132.685 140.808L132.734 140.701L132.769 140.625L132.818 140.515L132.852 140.438L132.9 140.325L132.932 140.251L132.979 140.136L133.01 140.06L133.058 139.938L133.084 139.872L133.134 139.741L133.158 139.676L133.212 139.526L133.227 139.483C133.274 139.351 133.319 139.217 133.362 139.083L133.37 139.057C133.389 138.999 133.407 138.941 133.425 138.884L133.442 138.828L133.485 138.682L133.505 138.614L133.543 138.48L133.564 138.403L133.598 138.275L133.618 138.199L133.652 138.064L133.67 137.994L133.703 137.856L133.72 137.782L133.751 137.649L133.768 137.57L133.798 137.43L133.812 137.361L133.841 137.217L133.855 137.146L133.883 136.995L133.895 136.933C133.906 136.872 133.916 136.812 133.926 136.751L133.932 136.719C133.956 136.573 133.979 136.425 134 136.277L134.003 136.255C134.012 136.189 134.021 136.122 134.03 136.056L134.036 136.007C134.043 135.952 134.05 135.896 134.057 135.84L134.065 135.763L134.081 135.619L134.09 135.538L134.104 135.392L134.111 135.318L134.124 135.168L134.13 135.089L134.141 134.942L134.147 134.862L134.156 134.718L134.161 134.632L134.168 134.486L134.172 134.407C134.175 134.353 134.177 134.298 134.179 134.243L134.181 134.181C134.183 134.123 134.185 134.064 134.186 134.005L134.188 133.95C134.189 133.885 134.19 133.819 134.191 133.753L134.192 133.723C134.243 129.371 132.958 124.528 130.283 120.055Z"/><path fill="#D34734" d="M219.101 120.669C218.059 120.858 217.008 121.025 215.948 121.167C213.418 121.506 210.903 121.692 208.407 121.731C208.299 121.733 208.19 121.735 208.081 121.736L207.991 121.737C207.832 121.738 207.672 121.739 207.513 121.739L207.512 121.739C175.859 121.806 148.199 98.3525 143.88 66.1523C142.686 57.2534 143.389 48.534 145.676 40.3933C143.992 41.0402 142.324 41.7225 140.66 42.4294C138.88 50.1878 138.441 58.3883 139.56 66.7319C143.994 99.7818 171.455 124.21 203.598 125.989L203.597 125.99C203.738 125.997 203.879 126.004 204.019 126.011L204.165 126.018C204.24 126.021 204.314 126.025 204.389 126.028C204.473 126.032 204.557 126.035 204.642 126.039L204.753 126.043C204.859 126.047 204.966 126.051 205.072 126.055L205.097 126.055C205.822 126.08 206.548 126.092 207.277 126.093H207.347C207.438 126.093 207.53 126.093 207.621 126.093L207.764 126.092C207.84 126.091 207.916 126.091 207.992 126.09C208.061 126.09 208.131 126.089 208.201 126.088C208.256 126.087 208.31 126.087 208.365 126.086C208.48 126.084 208.595 126.082 208.711 126.08L208.745 126.08C211.029 126.034 213.334 125.874 215.65 125.592C216.827 123.97 217.977 122.333 219.104 120.668L219.101 120.669Z"/><path fill="#D34734" d="M246.426 44.0612C246.422 44.0048 246.419 43.9487 246.415 43.8928L246.409 43.7938C246.404 43.7303 246.4 43.6675 246.394 43.6049L246.388 43.5252C246.383 43.4553 246.377 43.3859 246.37 43.3169L246.364 43.2498C246.357 43.1766 246.35 43.1038 246.342 43.0314L246.337 42.9788C246.329 42.9019 246.32 42.8254 246.311 42.7496L246.306 42.7102C246.297 42.6365 246.288 42.5632 246.278 42.4904L246.276 42.4736L246.271 42.4339L246.254 42.3181L246.233 42.1761L246.227 42.1317C246.203 41.976 246.177 41.8235 246.15 41.6739L246.146 41.643L246.119 41.5155C245.971 40.7638 245.774 40.0839 245.522 39.4891C242.645 32.7006 228.078 30.3703 219.481 29.5448C205.371 28.1832 190.99 29.0194 177.062 31.5409C170.505 32.7282 164.027 34.3072 157.66 36.2543C153.915 44.9548 152.402 54.7504 153.754 64.8275C157.729 94.4672 184.983 115.274 214.622 111.298C215.132 111.23 215.639 111.154 216.144 111.072C216.716 110.979 217.286 110.877 217.851 110.766C217.914 110.755 217.976 110.742 218.038 110.73L218.164 110.704C221.134 110.108 224.006 109.272 226.757 108.22C232.064 98.7008 236.454 88.6764 239.84 78.3216C240.004 77.8161 240.182 77.2707 240.362 76.6876C240.499 76.2544 240.638 75.796 240.782 75.3245C240.815 75.2164 240.847 75.107 240.88 74.9978C240.911 74.8961 240.941 74.7938 240.972 74.6916C241.055 74.4159 241.139 74.1362 241.225 73.8517C241.324 73.512 241.422 73.1657 241.526 72.8125C241.681 72.2829 241.834 71.741 241.986 71.1867C242.144 70.6313 242.294 70.0648 242.449 69.4852L242.449 69.4788H242.448C242.473 69.3871 242.498 69.2949 242.524 69.2026C242.657 68.7123 242.787 68.2174 242.915 67.7137C242.958 67.5527 242.998 67.3928 243.036 67.2324L243.066 67.1096C243.127 66.8738 243.187 66.637 243.246 66.399C243.492 65.4197 243.731 64.4199 243.964 63.4078C244.17 62.5145 244.369 61.6104 244.559 60.7038C244.586 60.5771 244.612 60.4508 244.639 60.324L244.665 60.1953C244.705 60.0021 244.744 59.8091 244.783 59.6161L244.788 59.5944C244.827 59.3972 244.867 59.2 244.906 59.0027L244.918 58.9411C244.948 58.7888 244.977 58.6368 245.006 58.4849L245.036 58.3331C245.158 57.7009 245.274 57.0634 245.384 56.4331C245.45 56.0696 245.51 55.7025 245.567 55.3392C245.589 55.1997 245.612 55.0601 245.634 54.9207C245.673 54.6774 245.711 54.4355 245.746 54.1928C245.771 54.0258 245.796 53.8596 245.82 53.6932C245.87 53.3617 245.916 53.0305 245.958 52.6999C246.377 49.536 246.573 46.5627 246.426 44.0612Z"/><path fill="#DA802E" d="M60.2086 191.702C58.3215 189.742 56.2244 187.203 54.1448 184.348C46.1608 188.498 38.8077 192.127 33.397 194.743C38.9141 196.182 49.9196 197.783 60.2086 191.702Z"/><path fill="#DA802E" d="M44.1196 166.67C38.5007 170.628 32.6832 177.498 30.4229 189.421C34.9855 185.545 41.1688 180.378 48.0511 174.861C46.5095 172.107 45.1513 169.322 44.1196 166.67Z"/><path fill="#AA3324" d="M129.877 186.38C133.463 197.954 128.802 216.261 71.1105 224.595H71.1099C71.2891 225.023 71.7158 225.882 72.0103 226.46L72.07 226.576C72.1018 226.638 72.1317 226.697 72.1585 226.748L72.2307 226.887L72.2645 226.951L72.303 227.022C88.2775 225.354 101.481 223.265 112.358 220.885C112.528 220.848 112.697 220.811 112.866 220.774C118.943 219.43 124.286 217.996 128.974 216.493C129.104 216.452 129.233 216.41 129.363 216.368C131.817 215.573 134.09 214.759 136.193 213.931C136.303 213.887 136.413 213.844 136.523 213.8C138.059 213.188 139.503 212.568 140.859 211.941C140.956 211.896 141.053 211.852 141.148 211.806C141.628 211.582 142.097 211.357 142.555 211.132C142.647 211.086 142.738 211.041 142.829 210.996C143.373 210.724 143.902 210.452 144.415 210.178C144.5 210.133 144.585 210.087 144.67 210.042C145.009 209.859 145.341 209.676 145.666 209.492C145.911 209.355 146.151 209.217 146.387 209.079C147.492 208.435 148.515 207.786 149.463 207.134C149.53 207.087 149.598 207.041 149.665 206.994C150.066 206.714 150.454 206.434 150.828 206.153C150.89 206.106 150.952 206.06 151.014 206.013C151.26 205.825 151.501 205.638 151.735 205.45C151.911 205.309 152.084 205.169 152.253 205.028C152.479 204.839 152.699 204.651 152.913 204.463C153.181 204.228 153.44 203.993 153.69 203.757C154.091 203.38 154.469 203.003 154.826 202.625C154.916 202.531 155.003 202.437 155.09 202.342C155.177 202.248 155.262 202.153 155.346 202.059C155.514 201.871 155.676 201.682 155.834 201.493C155.913 201.399 155.99 201.305 156.067 201.21L156.18 201.069C156.368 200.833 156.547 200.598 156.719 200.363L156.821 200.221C156.889 200.127 156.955 200.033 157.02 199.939C157.216 199.657 157.4 199.375 157.575 199.093C157.632 199 157.69 198.906 157.745 198.812L157.828 198.671C157.882 198.578 157.936 198.484 157.988 198.391L158.066 198.25C158.117 198.157 158.167 198.063 158.216 197.97C158.314 197.783 158.407 197.597 158.496 197.41C158.541 197.317 158.584 197.224 158.627 197.131L158.69 196.991C158.731 196.899 158.771 196.806 158.81 196.713C159.614 194.811 159.977 192.943 160.015 191.143C160.018 191.056 160.018 190.968 160.019 190.88C160.019 190.793 160.019 190.706 160.018 190.618C160.015 190.444 160.01 190.271 160.002 190.097C159.998 190.011 159.993 189.925 159.987 189.839C159.982 189.752 159.976 189.667 159.969 189.581C159.958 189.453 159.946 189.324 159.933 189.196L159.919 189.069C159.904 188.942 159.889 188.814 159.871 188.688C159.86 188.604 159.847 188.519 159.835 188.436C159.815 188.309 159.795 188.184 159.772 188.059C159.728 187.809 159.679 187.561 159.624 187.315C159.606 187.233 159.587 187.151 159.568 187.069L159.538 186.947C159.498 186.784 159.456 186.623 159.412 186.462C159.39 186.381 159.368 186.301 159.344 186.221C159.31 186.101 159.274 185.982 159.237 185.863C159.212 185.784 159.187 185.705 159.162 185.626C159.136 185.547 159.11 185.469 159.084 185.391C159.004 185.155 158.92 184.923 158.833 184.693C158.804 184.617 158.774 184.54 158.744 184.464C158.714 184.388 158.684 184.312 158.653 184.236C158.623 184.161 158.591 184.086 158.56 184.011C158.497 183.861 158.432 183.711 158.366 183.564C158.333 183.49 158.3 183.416 158.266 183.343C158.232 183.269 158.198 183.197 158.164 183.124C158.13 183.051 158.095 182.979 158.06 182.906C158.007 182.798 157.954 182.691 157.9 182.584C157.846 182.477 157.792 182.371 157.737 182.265C157.663 182.125 157.588 181.985 157.513 181.847C157.456 181.743 157.399 181.64 157.341 181.538C157.302 181.47 157.264 181.402 157.225 181.334L157.166 181.234C157.127 181.166 157.088 181.1 157.048 181.034L156.989 180.934C156.83 180.669 156.668 180.411 156.504 180.157C156.463 180.093 156.422 180.03 156.381 179.968C156.34 179.905 156.298 179.843 156.257 179.781C156.008 179.409 155.756 179.05 155.503 178.705C155.46 178.648 155.418 178.591 155.376 178.534C155.271 178.393 155.165 178.253 155.06 178.116L154.996 178.035C154.849 177.844 154.702 177.659 154.555 177.479C154.409 177.299 154.264 177.124 154.12 176.954L154.059 176.881L154.058 176.88C146.254 180.656 138.161 183.836 129.877 186.38Z"/><path fill="#AA3324" d="M70.7765 96.2759C70.976 96.0132 71.1756 95.7516 71.3751 95.4907C75.953 89.5106 80.9579 83.8639 86.3219 78.5805L86.3348 78.5628C86.4609 78.3889 86.5866 78.2161 86.7122 78.0428L86.7361 78.0098C86.7355 78.0092 86.4709 77.5142 85.9608 76.719C85.8438 76.5368 85.7139 76.3387 85.5714 76.1271C85.4935 76.0113 85.4122 75.892 85.327 75.769C85.2699 75.6868 85.2115 75.6033 85.1512 75.5181C85.0913 75.4329 85.0292 75.3466 84.9658 75.2584L84.8694 75.1249C84.8045 75.0357 84.7378 74.9451 84.6693 74.8528C84.6181 74.784 84.5657 74.7146 84.5125 74.6441C84.4241 74.527 84.3333 74.4077 84.2395 74.2872C83.9965 73.9745 83.7365 73.6507 83.4598 73.3204C83.3534 73.1929 83.2447 73.0648 83.1333 72.9359C83.0469 72.836 82.959 72.7355 82.8697 72.6343L82.8541 72.6167L82.7224 72.4691L82.5807 72.3128L82.5089 72.234C82.4369 72.1558 82.3641 72.0771 82.2902 71.9983L82.2165 71.9195C82.1175 71.8143 82.017 71.7091 81.915 71.6039L81.7607 71.4464L81.6829 71.3676C81.5392 71.2224 81.3928 71.0778 81.2435 70.9338L81.1636 70.8568C80.9587 70.6605 80.7486 70.4647 80.5334 70.2708C80.4473 70.1933 80.3607 70.1162 80.2731 70.0392C80.1268 69.9111 79.9786 69.7842 79.8282 69.6577C79.7377 69.5818 79.6466 69.5067 79.5546 69.432C79.4935 69.3821 79.4318 69.3321 79.3697 69.2828C79.3077 69.2333 79.2455 69.184 79.1825 69.1346L79.047 69.0294L78.898 68.9154C78.8342 68.8672 78.7702 68.819 78.7056 68.7709C78.6089 68.6991 78.5113 68.6281 78.4129 68.5575C78.3477 68.5098 78.2816 68.4634 78.2155 68.4171L78.1158 68.3471C78.0159 68.2777 77.9151 68.209 77.8136 68.1414C77.6784 68.0509 77.5418 67.9615 77.4037 67.8733C77.3349 67.8292 77.2655 67.7857 77.1956 67.7422C77.0912 67.6775 76.9858 67.6135 76.88 67.55L76.7736 67.4872C76.6313 67.4037 76.4879 67.322 76.343 67.2415C76.2707 67.2015 76.1979 67.1616 76.125 67.1228C76.0518 67.0835 75.9783 67.0447 75.9046 67.0059L75.7937 66.9489C75.6826 66.8918 75.5706 66.8361 75.4581 66.7814C75.3455 66.7262 75.2321 66.6726 75.118 66.6198C74.8896 66.5144 74.6586 66.4135 74.4248 66.3176C74.3466 66.2852 74.2681 66.2541 74.1897 66.223L74.0713 66.1771C73.9925 66.1466 73.9132 66.1172 73.8335 66.0879L73.6825 66.0331C73.6129 66.0085 73.5429 65.9837 73.4729 65.9602C73.2311 65.8773 72.9865 65.8004 72.7388 65.7293L72.588 65.6864C72.4726 65.6546 72.3568 65.6235 72.2401 65.5941C71.9888 65.5306 71.7346 65.4729 71.4778 65.4212C71.3922 65.4042 71.3065 65.3878 71.2201 65.3724C71.134 65.3565 71.0473 65.3419 70.9606 65.3272C70.8301 65.306 70.6993 65.2867 70.5677 65.2685C70.4844 65.2574 70.4013 65.2467 70.3178 65.2367L70.1706 65.2197C69.2837 65.1227 68.3667 65.1039 67.4211 65.1762C67.3264 65.1832 67.2318 65.1915 67.1366 65.2009C66.9463 65.2191 66.7549 65.2408 66.562 65.2668C66.4659 65.2797 66.3692 65.2932 66.2726 65.3079C66.1271 65.3302 65.9814 65.355 65.8347 65.3814C65.7368 65.399 65.639 65.4178 65.5408 65.4378C65.3933 65.4672 65.2451 65.4989 65.0965 65.533C64.9974 65.5559 64.8982 65.5801 64.7984 65.6047C64.6987 65.63 64.5988 65.6558 64.4987 65.6822C64.3985 65.7093 64.298 65.7375 64.1971 65.7669C64.0962 65.7957 63.9955 65.8257 63.8942 65.8574C63.7927 65.8885 63.6911 65.9209 63.5894 65.9544C63.2837 66.0549 62.9759 66.1648 62.6654 66.2853C62.5619 66.3253 62.4582 66.367 62.3542 66.4094L62.1981 66.474C62.0937 66.5175 61.9894 66.5621 61.8845 66.608C61.7441 66.6698 61.6031 66.7339 61.4613 66.7997C61.392 66.8321 61.3224 66.865 61.2526 66.8984L61.0936 66.9755C60.8044 67.1172 60.5132 67.2676 60.2199 67.4274C60.1367 67.4727 60.0536 67.5185 59.9703 67.5656C59.8084 67.6567 59.6459 67.7502 59.4831 67.8465C59.4287 67.8789 59.3744 67.9118 59.3197 67.9441C59.0475 68.1088 58.7737 68.281 58.4983 68.4615C58.3881 68.5337 58.2776 68.6072 58.1671 68.6819C57.8905 68.8695 57.6123 69.0645 57.3324 69.269C57.2204 69.3508 57.1085 69.4337 56.9962 69.5177C56.8836 69.6024 56.7711 69.6881 56.6583 69.7751C56.5897 69.828 56.5213 69.8815 56.4528 69.9356C56.3264 70.035 56.1995 70.136 56.0722 70.2389C55.984 70.3106 55.8958 70.3823 55.8071 70.4558C55.6931 70.5498 55.5788 70.6455 55.4644 70.7431C55.3193 70.8659 55.1738 70.9918 55.028 71.1193L54.8661 71.2621C54.5469 71.5449 54.2264 71.8388 53.9039 72.1438C53.8454 72.199 53.787 72.2549 53.7287 72.3106C53.6415 72.3947 53.5539 72.4793 53.4663 72.5646C53.3781 72.651 53.2897 72.7373 53.2013 72.8255C53.0838 72.9419 52.9659 73.06 52.8477 73.18C52.7589 73.2698 52.6696 73.3615 52.5805 73.4532C52.492 73.5443 52.4039 73.636 52.3151 73.7289C52.1963 73.8535 52.0776 73.9792 51.9583 74.1068C51.8394 74.2344 51.7199 74.3637 51.6004 74.4942C51.2736 74.8516 50.9453 75.2213 50.6154 75.6028C50.5504 75.6781 50.4854 75.7532 50.4205 75.829C50.3321 75.9325 50.2437 76.0365 50.1549 76.1417C50.0944 76.2134 50.0335 76.2856 49.9727 76.3586C49.8513 76.5037 49.7294 76.6513 49.6074 76.8C49.3635 77.0975 49.1187 77.4019 48.8729 77.7134C48.7501 77.8692 48.6269 78.0261 48.5038 78.1854C48.442 78.2647 48.3804 78.3446 48.3186 78.4252C48.2302 78.5404 48.1416 78.6568 48.0532 78.7731C47.9404 78.9225 47.8272 79.0729 47.7141 79.2246C47.6056 79.3697 47.4971 79.5161 47.3887 79.6637C47.3264 79.7489 47.2641 79.8336 47.2018 79.9193C47.051 80.1262 46.9 80.336 46.7489 80.5483C46.6755 80.6513 46.6022 80.7546 46.5288 80.8586C46.4588 80.9573 46.3888 81.0567 46.319 81.1572C46.1744 81.3635 46.0298 81.5722 45.8845 81.7838C45.6533 82.1211 45.4214 82.4645 45.1889 82.8136C45.1042 82.9411 45.0197 83.0688 44.9347 83.1975C44.6171 83.6801 44.2979 84.1745 43.9776 84.6804C43.8741 84.8438 43.7707 85.009 43.6667 85.1747C43.4104 85.585 43.1532 86.0029 42.8955 86.4284C42.8444 86.5123 42.7932 86.597 42.7421 86.6823C42.5358 87.0244 42.3289 87.3723 42.1217 87.7244C42.0679 87.8161 42.0141 87.9072 41.9603 87.9995C41.8983 88.1053 41.8363 88.2117 41.7745 88.3187C41.6917 88.4609 41.609 88.6038 41.5265 88.7478C41.4004 88.967 41.2741 89.188 41.1473 89.4109C40.8934 89.8587 40.6389 90.3142 40.3836 90.7769C40.3113 90.908 40.2389 91.0396 40.1664 91.1725C40.1064 91.2818 40.0465 91.3918 39.9865 91.5017C39.9151 91.6333 39.8437 91.7651 39.772 91.8979C39.6447 92.1342 39.5172 92.3716 39.3894 92.6114C39.3191 92.7437 39.2489 92.8759 39.1784 93.0094C39.1155 93.1281 39.0529 93.2474 38.9899 93.3667C38.8542 93.6253 38.7185 93.8857 38.5823 94.1484C38.4169 94.4675 38.2513 94.7896 38.0856 95.1153C37.9184 95.4433 37.7512 95.7747 37.5836 96.1092C37.4498 96.3761 37.3159 96.6452 37.1819 96.9162C37.046 97.1906 36.9103 97.4669 36.7746 97.7455C36.7091 97.8801 36.6432 98.0147 36.5777 98.1505C36.5081 98.2939 36.4381 98.4384 36.3685 98.5837C36.2362 98.8583 36.1039 99.1344 35.9715 99.4136C35.9001 99.5629 35.829 99.7134 35.7575 99.8644C35.6576 100.076 35.5577 100.288 35.4578 100.502C35.2171 101.016 34.9761 101.537 34.7342 102.065C34.6349 102.282 34.5356 102.501 34.4358 102.72C34.3298 102.954 34.2236 103.189 34.1176 103.426C33.9974 103.693 33.8769 103.963 33.7564 104.234C33.4551 104.912 33.1533 105.601 32.8506 106.3C32.8001 106.417 32.7495 106.534 32.699 106.651C32.5508 106.995 32.4027 107.341 32.2546 107.69C32.1959 107.828 32.1371 107.966 32.0783 108.105C31.8593 108.622 31.6401 109.145 31.4205 109.674C31.3629 109.813 31.3053 109.952 31.2478 110.092C30.7478 111.301 30.2459 112.541 29.7418 113.813C29.6863 113.952 29.6311 114.093 29.5755 114.233C29.2795 114.983 28.9827 115.744 28.6856 116.515C28.6316 116.656 28.5772 116.796 28.5231 116.938C28.4361 117.165 28.3489 117.393 28.2616 117.622C28.2081 117.763 28.1543 117.904 28.1005 118.046C27.7295 119.023 27.3576 120.018 26.9846 121.029C26.9326 121.171 26.8802 121.313 26.828 121.455C25.9548 123.833 25.0764 126.306 24.1931 128.875C24.144 129.018 24.0946 129.162 24.0453 129.306C22.4157 134.063 20.7699 139.15 19.1094 144.588C19.1417 144.616 19.2178 144.677 19.3233 144.761L19.3785 144.804L19.4696 144.877L19.6055 144.983L19.7156 145.069L19.7538 145.099L19.9122 145.222L19.953 145.253L20.0359 145.317L20.12 145.382L20.2046 145.446L20.2471 145.479L20.3323 145.544C20.6874 145.814 21.0388 146.073 21.2631 146.223C40.9413 89.8373 60.256 90.0907 70.7765 96.2759Z"/><path fill="#F7FCFF" d="M83.3289 98.3743C84.766 96.7397 86.1896 95.0952 87.6832 93.5134C89.1409 91.9 90.6345 90.3189 92.1597 88.7689C98.2108 82.5185 104.598 76.5879 111.291 70.8982C114.636 68.0487 118.054 65.2538 121.54 62.4877C125.014 59.699 128.584 56.9971 132.146 54.1272C127.728 55.3115 123.466 56.9571 119.313 58.8538C115.161 60.7538 111.148 62.9627 107.259 65.3842C99.5046 70.2639 92.312 76.0952 85.9047 82.7012C84.3107 84.3605 82.7551 86.0569 81.2465 87.7955C79.7569 89.5494 78.2977 91.3304 76.9085 93.1649C75.5253 95.0041 74.1771 96.8748 72.9228 98.7693C71.6438 100.656 70.431 102.592 69.2569 104.55C66.9231 108.476 64.7904 112.53 62.9659 116.724C61.1591 120.924 59.6089 125.241 58.6182 129.709C63.9873 122.332 69.2915 115.306 74.8788 108.472C77.6683 105.07 80.4773 101.642 83.3289 98.3743Z"/><path fill="#C5DDF1" d="M58.5792 166.598C62.0097 163.968 65.4938 161.363 68.9384 158.877C62.5995 148.766 55.7837 135.191 53.1707 124.055L53.1704 124.055L53.1139 124.169C53.0865 124.224 53.0593 124.279 53.0322 124.333C52.9741 124.451 52.9158 124.569 52.8579 124.686L52.8223 124.759C52.7523 124.901 52.6827 125.044 52.6131 125.187L52.6043 125.206C51.2169 128.059 49.9379 130.957 48.7909 133.893L48.7829 133.914C48.7246 134.062 48.6668 134.212 48.6095 134.36L48.5858 134.423C48.5367 134.55 48.4876 134.678 48.4391 134.806L48.386 134.946C48.3455 135.053 48.3054 135.16 48.2652 135.267C48.2417 135.33 48.2179 135.392 48.1947 135.455C48.1609 135.546 48.1271 135.637 48.0936 135.728C48.0642 135.807 48.0348 135.887 48.0054 135.966C47.9783 136.04 47.9513 136.115 47.9243 136.189C47.8893 136.285 47.8543 136.381 47.8196 136.476C47.7993 136.533 47.779 136.589 47.7588 136.646C47.717 136.762 47.6753 136.878 47.6342 136.995L47.6004 137.09C47.5504 137.231 47.5007 137.371 47.4516 137.513L47.4426 137.539C47.0417 138.689 46.662 139.844 46.3052 141.003C49.0434 149.109 53.4664 158.026 58.5792 166.598Z"/><path fill="#C5DDF1" d="M218.164 110.705L218.038 110.73C217.976 110.742 217.914 110.755 217.851 110.766C217.286 110.877 216.716 110.979 216.144 111.073C213.423 114.76 210.54 118.325 207.513 121.739C207.672 121.739 207.832 121.738 207.991 121.737L208.081 121.736C208.19 121.735 208.299 121.733 208.407 121.731C210.9 121.691 213.416 121.505 215.946 121.166C217.007 121.024 218.059 120.857 219.102 120.667L219.101 120.669L219.104 120.668C221.829 116.634 224.388 112.477 226.757 108.221C224.006 109.272 221.134 110.109 218.164 110.705Z"/><path fill="#C5DDF1" d="M208.744 126.08L208.71 126.08C208.595 126.082 208.48 126.084 208.364 126.086C208.31 126.087 208.255 126.087 208.201 126.088C208.131 126.089 208.061 126.09 207.991 126.09C207.915 126.091 207.84 126.091 207.764 126.092L207.621 126.093C207.529 126.093 207.438 126.093 207.347 126.093H207.276C206.548 126.092 205.821 126.08 205.097 126.056L205.072 126.055C204.965 126.051 204.859 126.047 204.752 126.043L204.641 126.039C204.557 126.036 204.473 126.032 204.389 126.028C204.314 126.025 204.239 126.021 204.165 126.018L204.019 126.011C203.878 126.004 203.737 125.997 203.597 125.99C202.221 127.437 200.82 128.843 199.391 130.223C182.317 146.716 161.505 158.9 139.188 165.851C120.278 171.743 89.7756 177.813 80.5325 173.348C79.8763 173.032 79.0111 172.304 77.9916 171.234C74.0809 173.538 70.0156 175.832 65.9502 178.057C70.732 184.976 75.6878 191.239 80.1767 196.1C89.8081 195.606 102.144 193.442 113.536 190.765C119.15 189.445 124.534 188.001 129.252 186.57C129.461 186.508 129.669 186.444 129.877 186.38C138.161 183.836 146.254 180.656 154.058 176.879C168.751 169.769 182.421 160.544 194.415 149.466C202.256 142.22 209.361 134.206 215.649 125.592C213.333 125.874 211.029 126.034 208.744 126.08Z"/><path fill="#605E6F" d="M48.0509 174.861C51.4283 172.154 54.974 169.363 58.5792 166.598C53.4664 158.026 49.0433 149.109 46.3053 141.003L46.3049 141.002C46.175 140.618 46.0487 140.235 45.9263 139.854C44.1299 145.271 42.8161 150.798 42.1325 156.39C41.9764 157.668 42.0629 159.118 42.3479 160.688C42.6847 162.542 43.2989 164.563 44.1191 166.67C45.1511 169.321 46.5093 172.107 48.0509 174.861Z"/><path fill="#605E6F" d="M65.9503 178.057C61.9664 180.238 57.9827 182.353 54.1445 184.348C56.2241 187.203 58.3212 189.743 60.2083 191.702C62.0475 193.611 63.6871 194.97 64.9164 195.531L65.002 195.569C68.2768 197.026 73.974 197.323 80.873 196.847C80.6423 196.602 80.4101 196.353 80.1768 196.1C75.688 191.239 70.7322 184.976 65.9503 178.057Z"/><path fill="#AA3324" d="M245.634 54.9203C245.673 54.677 245.711 54.4351 245.746 54.1924C245.759 54.1048 245.772 54.0172 245.784 53.929C245.796 53.8502 245.808 53.7715 245.82 53.6927C245.87 53.3612 245.916 53.03 245.958 52.6993C246.377 49.536 246.573 46.5627 246.425 44.0611C246.422 44.0046 246.419 43.9485 246.415 43.8927L246.408 43.7936C246.404 43.7302 246.399 43.6673 246.394 43.6047L246.388 43.5251C246.382 43.4551 246.376 43.3857 246.37 43.3167L246.364 43.2497C246.357 43.1764 246.35 43.1037 246.342 43.0313L246.337 42.9787C246.328 42.9017 246.32 42.8252 246.311 42.7495L246.306 42.71C246.297 42.6363 246.288 42.5631 246.278 42.4902L246.276 42.4734L246.27 42.4338L246.254 42.3179L246.233 42.1759L246.226 42.1316C246.202 41.9758 246.177 41.8233 246.15 41.6737L246.146 41.6428L246.118 41.5153C246.076 41.314 246.033 41.1138 245.986 40.9229C244.696 48.6785 242.513 56.8051 241.087 61.4441C238.01 71.4746 233.997 81.1787 229.133 90.3873C226.965 94.5041 224.614 98.5192 222.115 102.423C221.075 104.032 220.018 105.612 218.94 107.177C218.029 108.492 217.097 109.786 216.145 111.07C216.717 110.978 217.286 110.876 217.851 110.766C217.913 110.754 217.975 110.742 218.037 110.73L218.164 110.704C221.133 110.108 224.005 109.271 226.756 108.22C232.063 98.7006 236.454 88.6761 239.839 78.3213C240.004 77.8158 240.182 77.2704 240.361 76.6873C240.498 76.2541 240.638 75.7957 240.782 75.3242C240.814 75.2161 240.847 75.1067 240.88 74.9975C240.91 74.8958 240.941 74.7935 240.972 74.6913C241.055 74.4157 241.139 74.1359 241.225 73.8514C241.324 73.5117 241.422 73.1655 241.525 72.8122C241.68 72.2826 241.834 71.7407 241.986 71.1865C242.143 70.631 242.294 70.0645 242.448 69.485L242.449 69.4786H242.448C242.473 69.3869 242.498 69.2946 242.523 69.2023C242.657 68.712 242.786 68.2171 242.914 67.7135C242.958 67.5524 242.997 67.3926 243.036 67.2321L243.066 67.1093C243.126 66.8736 243.186 66.6367 243.246 66.3987C243.492 65.4195 243.731 64.4196 243.964 63.4075C244.17 62.5142 244.368 61.6101 244.559 60.7035C244.585 60.5768 244.612 60.4505 244.638 60.3237L244.665 60.195C244.705 60.0018 244.744 59.8088 244.783 59.6158L244.787 59.5941C244.827 59.397 244.866 59.1997 244.905 59.0025L244.918 58.9408C244.947 58.7886 244.977 58.6366 245.006 58.4847L245.036 58.3328C245.158 57.7006 245.274 57.0632 245.384 56.4328C245.45 56.0693 245.51 55.7022 245.566 55.339C245.575 55.2839 245.584 55.2285 245.592 55.1736C245.606 55.0887 245.62 55.0047 245.634 54.9203Z"/><path fill="#AA3324" d="M215.948 121.167C213.418 121.506 210.903 121.692 208.407 121.731C208.298 121.733 208.19 121.735 208.081 121.736L207.991 121.736C207.832 121.738 207.672 121.739 207.513 121.739L207.512 121.739C206.237 123.185 204.932 124.604 203.597 125.989L203.597 125.99C203.738 125.997 203.878 126.004 204.019 126.011L204.165 126.018C204.24 126.021 204.314 126.025 204.389 126.028C204.473 126.032 204.557 126.035 204.641 126.039L204.752 126.043C204.859 126.047 204.965 126.051 205.072 126.055L205.097 126.055C205.822 126.08 206.548 126.092 207.277 126.093H207.347C207.438 126.093 207.529 126.093 207.621 126.092L207.764 126.092C207.84 126.091 207.916 126.091 207.991 126.09C208.061 126.09 208.131 126.089 208.201 126.088C208.255 126.087 208.31 126.087 208.365 126.086C208.48 126.084 208.595 126.082 208.711 126.08L208.744 126.08C211.029 126.034 213.333 125.874 215.649 125.592C216.827 123.97 217.976 122.333 219.104 120.668L219.101 120.669C218.059 120.858 217.008 121.025 215.948 121.167Z"/><path fill="#AA3324" d="M91.9285 153C89.9101 149.903 84.2715 148.438 78.7374 152.089C75.5649 154.181 72.2704 156.473 68.9386 158.877C65.4939 161.362 62.0099 163.968 58.5794 166.598C54.9743 169.363 51.4285 172.154 48.0512 174.861C41.1688 180.378 34.9855 185.545 30.4229 189.421C25.5062 193.598 22.4712 196.275 22.4712 196.275L24.2912 199.068C24.2912 199.068 27.8081 197.445 33.3967 194.743C38.8074 192.127 46.1605 188.498 54.1445 184.348C57.9827 182.353 61.9662 180.238 65.9503 178.057C70.0157 175.832 74.081 173.538 77.9917 171.234C81.2794 169.297 84.4578 167.353 87.4352 165.435C93.0092 161.846 93.9467 156.097 91.9285 153Z"/><path fill="#D34734" d="M75.5445 163.499C74.1201 161.314 70.0085 160.367 65.8791 163.088C47.6049 175.133 23.7671 195.839 23.7671 195.839L25.0514 197.809C25.0514 197.809 53.6197 184.362 72.0177 172.507C76.1748 169.829 76.9689 165.684 75.5445 163.499Z"/><path fill="#24488E" d="M129.867 139.158C123.17 143.566 113.042 139.286 107.247 129.596C104.572 125.124 103.287 120.281 103.338 115.929L103.337 115.932C103.233 116.187 103.136 116.447 103.045 116.71L103.042 116.72C102.982 116.896 102.924 117.073 102.87 117.253L102.868 117.26C102.813 117.44 102.762 117.623 102.713 117.808V117.808C102.64 118.085 102.574 118.365 102.514 118.649L102.511 118.664C102.472 118.852 102.436 119.041 102.403 119.233L102.402 119.239C102.351 119.528 102.308 119.819 102.271 120.115L102.27 120.127C102.245 120.32 102.224 120.516 102.206 120.713L102.204 120.735C102.186 120.932 102.171 121.129 102.159 121.328L102.158 121.343C102.152 121.437 102.147 121.532 102.143 121.626L102.142 121.65C102.133 121.847 102.127 122.046 102.123 122.245L102.123 122.279C102.119 122.479 102.119 122.68 102.122 122.881L102.122 122.906C102.124 123.004 102.126 123.101 102.128 123.199L102.129 123.212C102.132 123.315 102.135 123.418 102.14 123.521L102.141 123.539C102.145 123.633 102.149 123.728 102.155 123.822L102.157 123.864C102.168 124.065 102.183 124.267 102.2 124.47L102.203 124.511C102.211 124.606 102.22 124.702 102.23 124.797L102.231 124.817C102.241 124.919 102.252 125.022 102.264 125.124L102.268 125.16C102.278 125.253 102.29 125.344 102.301 125.437L102.306 125.478C102.332 125.68 102.36 125.883 102.391 126.085L102.401 126.146C102.432 126.347 102.466 126.55 102.503 126.753L102.512 126.805C102.529 126.894 102.545 126.983 102.563 127.072L102.572 127.118C102.592 127.22 102.612 127.322 102.634 127.424L102.641 127.461C102.66 127.55 102.679 127.639 102.699 127.728L102.714 127.793C102.759 127.994 102.807 128.197 102.857 128.399L102.874 128.465C102.896 128.555 102.92 128.645 102.943 128.735L102.952 128.77C102.979 128.872 103.007 128.974 103.035 129.076L103.051 129.132C103.075 129.215 103.098 129.298 103.122 129.381L103.144 129.454C103.173 129.554 103.203 129.654 103.233 129.753L103.243 129.783C103.27 129.873 103.299 129.964 103.328 130.053L103.352 130.131C103.382 130.223 103.412 130.315 103.443 130.407L103.45 130.43C103.484 130.53 103.518 130.63 103.553 130.73L103.578 130.803C103.607 130.885 103.637 130.968 103.667 131.05L103.689 131.111C103.725 131.211 103.762 131.31 103.799 131.409L103.82 131.465C103.851 131.547 103.883 131.628 103.914 131.709L103.948 131.795C103.985 131.89 104.023 131.986 104.062 132.081L104.07 132.099C104.109 132.195 104.149 132.29 104.189 132.386L104.221 132.462C104.256 132.545 104.291 132.627 104.327 132.71L104.352 132.767C104.395 132.865 104.438 132.962 104.483 133.06L104.514 133.129C104.549 133.206 104.585 133.284 104.621 133.362L104.659 133.442C104.704 133.538 104.749 133.634 104.795 133.729L104.822 133.783C104.861 133.865 104.901 133.946 104.941 134.027L104.983 134.111C105.026 134.196 105.069 134.281 105.113 134.366L105.132 134.405C105.182 134.501 105.232 134.596 105.282 134.692L105.326 134.774C105.366 134.849 105.407 134.925 105.448 135L105.488 135.073C105.54 135.168 105.593 135.263 105.646 135.358L105.681 135.419C105.724 135.496 105.768 135.573 105.813 135.65L105.863 135.735C105.915 135.826 105.968 135.916 106.022 136.006L106.03 136.02C106.709 137.155 107.448 138.216 108.234 139.198C108.286 139.264 108.339 139.329 108.392 139.394C108.708 139.782 109.033 140.157 109.363 140.52C109.418 140.581 109.473 140.641 109.529 140.701C110.139 141.357 110.771 141.969 111.42 142.535C111.833 142.895 112.252 143.236 112.678 143.558C112.799 143.651 112.921 143.741 113.043 143.83C113.533 144.185 114.029 144.515 114.53 144.818C114.655 144.894 114.781 144.969 114.906 145.041C115.095 145.15 115.284 145.255 115.474 145.357C115.601 145.424 115.727 145.49 115.855 145.555C115.982 145.619 116.109 145.682 116.236 145.742C116.363 145.804 116.491 145.863 116.619 145.92C116.746 145.977 116.874 146.033 117.002 146.087C117.13 146.141 117.258 146.194 117.386 146.244C117.45 146.27 117.514 146.295 117.578 146.319C117.706 146.368 117.835 146.415 117.963 146.461C121.747 147.8 125.563 147.614 128.65 145.581L128.811 145.474L128.868 145.434L128.974 145.36L129.031 145.318L129.129 145.247L129.197 145.196L129.285 145.129L129.351 145.078L129.437 145.009L129.504 144.955L129.588 144.887L129.655 144.831L129.736 144.762L129.802 144.704L129.883 144.633L129.946 144.576L130.026 144.503L130.089 144.443L130.167 144.37L130.229 144.31L130.31 144.231L130.366 144.174L130.448 144.089L130.502 144.034C130.59 143.941 130.677 143.847 130.763 143.751L130.806 143.702L130.891 143.605L130.942 143.544L131.015 143.458L131.069 143.392L131.139 143.305L131.191 143.24L131.26 143.153L131.312 143.084L131.377 142.998L131.43 142.926L131.494 142.839L131.544 142.769L131.609 142.678L131.657 142.608L131.721 142.514L131.767 142.445L131.83 142.35L131.875 142.279L131.938 142.18L131.98 142.113L132.05 141.996L132.082 141.944C132.15 141.83 132.216 141.714 132.281 141.598L132.304 141.556L132.377 141.423L132.408 141.363L132.47 141.245L132.504 141.177L132.56 141.067L132.596 140.993L132.648 140.886L132.685 140.808L132.734 140.701L132.769 140.625L132.818 140.515L132.852 140.438L132.9 140.325L132.932 140.251L132.979 140.136L133.01 140.06L133.058 139.938L133.084 139.872L133.134 139.741L133.158 139.676L133.212 139.526L133.227 139.483C133.274 139.351 133.319 139.217 133.362 139.083L133.37 139.057C133.389 138.999 133.407 138.941 133.425 138.884L133.442 138.828L133.485 138.682L133.505 138.614L133.543 138.48L133.564 138.403L133.598 138.275L133.618 138.2L133.652 138.064L133.67 137.994L133.703 137.856L133.72 137.782L133.751 137.649L133.768 137.57L133.798 137.43L133.812 137.361L133.841 137.217L133.855 137.146L133.883 136.995L133.895 136.933C133.906 136.872 133.916 136.812 133.926 136.751L133.932 136.719C133.956 136.573 133.979 136.425 134 136.277L134.003 136.255C134.012 136.189 134.021 136.122 134.03 136.056L134.036 136.007C134.043 135.952 134.05 135.896 134.057 135.84L134.065 135.763L134.081 135.619L134.09 135.538L134.104 135.392L134.111 135.318L134.124 135.168L134.13 135.089L134.141 134.942L134.147 134.862L134.156 134.718L134.161 134.632L134.168 134.486L134.172 134.407C134.175 134.353 134.177 134.298 134.179 134.243L134.181 134.181C134.183 134.123 134.185 134.064 134.186 134.005L134.188 133.95C134.189 133.885 134.19 133.819 134.191 133.753L134.192 133.723C133.267 135.987 131.821 137.871 129.867 139.158Z"/></svg>