<svg width="386" height="444" viewBox="0 0 386 444" fill="none" xmlns="http://www.w3.org/2000/svg">
<path d="M385.986 104.492C385.986 112.956 385.254 122.965 383.789 134.521C382.324 145.915 379.801 159.098 376.221 174.072C372.803 188.883 368.083 205.485 362.061 223.877C356.201 242.269 348.877 262.695 340.088 285.156C330.485 309.57 320.638 331.217 310.547 350.098C300.618 368.815 291.26 384.684 282.471 397.705C273.844 410.726 266.276 420.817 259.766 427.979C253.255 435.14 248.698 439.372 246.094 440.674C241.862 442.627 237.223 443.604 232.178 443.604C227.946 443.604 223.633 442.952 219.238 441.65C214.844 440.348 211.1 438.314 208.008 435.547C206.055 433.919 202.799 429.769 198.242 423.096C193.848 416.423 189.128 406.982 184.082 394.775C179.036 382.406 174.154 367.025 169.434 348.633C164.714 330.241 161.214 308.35 158.936 282.959C151.937 292.074 144.287 301.839 135.986 312.256C127.686 322.673 119.222 333.089 110.596 343.506C101.969 353.76 93.3431 363.851 84.7168 373.779C76.2533 383.545 68.278 392.497 60.791 400.635C53.304 408.773 46.6309 415.771 40.7715 421.631C34.9121 427.653 30.3548 431.966 27.0996 434.57C25.3092 432.943 23.2747 430.99 20.9961 428.711C18.5547 426.432 16.1133 423.991 13.6719 421.387C11.0677 418.945 8.6263 416.423 6.34766 413.818C3.90625 411.214 1.79036 408.773 0 406.494C23.763 385.661 47.8516 356.283 72.2656 318.359C96.6797 280.436 119.954 234.701 142.09 181.152C144.857 183.431 147.461 185.71 149.902 187.988C152.344 190.267 154.704 192.546 156.982 194.824C157.633 172.038 158.366 151.774 159.18 134.033C160.156 116.292 161.214 100.667 162.354 87.1582C163.493 73.4863 164.551 61.7676 165.527 52.002C166.667 42.2363 167.725 33.9355 168.701 27.0996C169.678 20.2637 170.492 14.7298 171.143 10.498C171.956 6.10352 172.607 2.60417 173.096 0C174.723 1.46484 177.165 3.82487 180.42 7.08008C183.675 10.1725 187.337 13.6719 191.406 17.5781C195.475 21.4844 199.707 25.6348 204.102 30.0293C208.659 34.2611 212.891 38.3301 216.797 42.2363C220.866 46.1426 224.365 49.6419 227.295 52.7344C230.387 55.8268 232.503 58.1055 233.643 59.5703C231.527 67.7083 229.085 77.2298 226.318 88.1348C223.714 98.877 221.191 111.572 218.75 126.221C216.471 140.706 214.518 157.308 212.891 176.025C211.263 194.743 210.449 216.064 210.449 239.99C210.612 262.288 211.426 283.854 212.891 304.688C213.542 313.639 214.274 322.917 215.088 332.52C216.064 341.96 217.204 351.318 218.506 360.596C219.971 369.71 221.68 378.499 223.633 386.963C225.586 395.426 227.783 402.995 230.225 409.668C250.57 376.139 266.764 343.669 278.809 312.256C291.016 280.843 300.374 250.081 306.885 219.971C313.395 189.86 317.627 160.238 319.58 131.104C321.533 101.807 322.51 72.5911 322.51 43.457V26.6113C330.973 33.1217 339.03 40.3646 346.68 48.3398C354.329 56.3151 361.084 63.8835 366.943 71.0449C373.779 79.3457 380.127 87.7279 385.986 96.1914V104.492Z" fill="white"/>
</svg>
